<?xml version="1.0" encoding="UTF-8"?>
<svg width="26px" height="26px" viewBox="0 0 26 26" version="1.1" xmlns="http://www.w3.org/2000/svg" xmlns:xlink="http://www.w3.org/1999/xlink">
    <!-- Generator: Sketch 42 (36781) - http://www.bohemiancoding.com/sketch -->
    <title>icon/rate</title>
    <desc>Created with Sketch.</desc>
    <defs></defs>
    <g id="Symbols" stroke="none" stroke-width="1" fill="none" fill-rule="evenodd">
        <g id="icon/rate" fill="#333F4D">
            <path d="M17.765625,15.7890625 L22.546875,11.1484375 L15.953125,10.1796875 L13,4.2109375 L10.046875,10.1796875 L3.453125,11.1484375 L8.234375,15.7890625 L7.09375,22.3671875 L13,19.2578125 L18.890625,22.3671875 L17.765625,15.7890625 Z M13,4.2109375 L10.046875,10.1796875 L3.453125,11.1484375 L8.234375,15.7890625 L7.09375,22.3671875 L13,19.2578125 L13,4.2109375 Z M26,10.2109375 C26,10.4401053 25.8645847,10.6901028 25.59375,10.9609375 L19.921875,16.4921875 L21.265625,24.3046875 C21.2760417,24.3776045 21.28125,24.4817702 21.28125,24.6171875 C21.28125,25.1380234 21.0677105,25.3984375 20.640625,25.3984375 C20.4427073,25.3984375 20.2343761,25.3359381 20.015625,25.2109375 L13,21.5234375 L5.984375,25.2109375 C5.75520719,25.3359381 5.54687594,25.3984375 5.359375,25.3984375 C5.14062391,25.3984375 4.97656305,25.3229174 4.8671875,25.171875 C4.75781195,25.0208326 4.703125,24.8359386 4.703125,24.6171875 C4.703125,24.5546872 4.71354156,24.4505216 4.734375,24.3046875 L6.078125,16.4921875 L0.390625,10.9609375 C0.130207031,10.6796861 0,10.4296886 0,10.2109375 C0,9.82551891 0.29166375,9.58593797 0.875,9.4921875 L8.71875,8.3515625 L12.234375,1.2421875 C12.4322927,0.815102031 12.6874984,0.6015625 13,0.6015625 C13.3125016,0.6015625 13.5677073,0.815102031 13.765625,1.2421875 L17.28125,8.3515625 L25.125,9.4921875 C25.7083363,9.58593797 26,9.82551891 26,10.2109375 Z" id="star-o---fontawesome"></path>
        </g>
    </g>
</svg>