<?xml version="1.0" encoding="UTF-8"?>
<svg width="18px" height="18px" viewBox="0 0 18 18" version="1.1" xmlns="http://www.w3.org/2000/svg" xmlns:xlink="http://www.w3.org/1999/xlink">
    <!-- Generator: Sketch 42 (36781) - http://www.bohemiancoding.com/sketch -->
    <title>icon_photo_refresh</title>
    <desc>Created with Sketch.</desc>
    <defs></defs>
    <g id="Symbols" stroke="none" stroke-width="1" fill="none" fill-rule="evenodd">
        <g id="icon_photo_refresh" fill="#F05623">
            <path d="M9.10001812,15 L2.55555556,15 C1.69644594,15 1,14.3035541 1,13.4444444 L1,2.55555556 C1,1.69644594 1.69644594,1 2.55555556,1 L13.4444444,1 C14.3,1 15,1.69222222 15,2.55555556 L15,9.10001812 C14.6768901,9.03443026 14.3424658,9 14,9 C13.0019187,9 12.0721405,9.29244059 11.2916771,9.79631016 L9.94444444,8 L7.22222222,11.5 L5.27777778,9.16666667 L2.55555556,12.6666667 L9.17974424,12.6666667 C9.06258843,13.0911454 9,13.5382636 9,14 C9,14.3424658 9.03443026,14.6768901 9.10001812,15 Z" id="Combined-Shape"></path>
            <text id="refresh---fontawesome" font-family="FontAwesome" font-size="9" font-weight="normal" letter-spacing="0.750000119">
                <tspan x="10" y="17.12364"></tspan>
            </text>
        </g>
    </g>
</svg>